<svg width="259" height="110" viewBox="0 0 259 110" fill="none" xmlns="http://www.w3.org/2000/svg">
<g filter="url(#filter0_d_66_502)">
<rect x="24.6033" y="21.6032" width="60.8425" height="60.8425" rx="8.11233" fill="white"/>
</g>
<path d="M49.5945 50.7947H55.0935V69.142C55.0935 70.8379 54.7123 72.3112 53.95 73.5617C53.1962 74.8123 52.147 75.7759 50.8022 76.4526C49.4574 77.1293 47.8942 77.4676 46.1126 77.4676C44.528 77.4676 43.089 77.1892 41.7956 76.6325C40.5108 76.0671 39.4915 75.2106 38.7377 74.0628C37.984 72.9065 37.6114 71.4546 37.62 69.7073H43.1575C43.1747 70.4011 43.316 70.9964 43.5815 71.4932C43.8556 71.9814 44.2282 72.3583 44.6993 72.6238C45.179 72.8808 45.7443 73.0093 46.3953 73.0093C47.0805 73.0093 47.6587 72.8637 48.1298 72.5724C48.6094 72.2726 48.9735 71.8358 49.2219 71.2619C49.4703 70.688 49.5945 69.9814 49.5945 69.142V50.7947ZM71.6513 58.3623C71.5485 57.3259 71.1074 56.5208 70.3279 55.9469C69.5485 55.373 68.4906 55.086 67.1544 55.086C66.2465 55.086 65.4799 55.2145 64.8546 55.4715C64.2293 55.7199 63.7496 56.0668 63.4156 56.5122C63.0901 56.9576 62.9274 57.463 62.9274 58.0283C62.9102 58.4994 63.0087 58.9105 63.2229 59.2617C63.4456 59.6129 63.7496 59.917 64.1351 60.1739C64.5205 60.4223 64.9659 60.6407 65.4713 60.8292C65.9767 61.0091 66.5163 61.1632 67.0902 61.2917L69.4542 61.857C70.602 62.114 71.6556 62.4566 72.6149 62.8849C73.5742 63.3132 74.4051 63.8399 75.1074 64.4652C75.8098 65.0905 76.3537 65.8271 76.7392 66.6751C77.1332 67.5231 77.3345 68.4953 77.343 69.5917C77.3345 71.202 76.9233 72.5981 76.1096 73.7802C75.3044 74.9536 74.1395 75.8659 72.6149 76.5168C71.0988 77.1592 69.2701 77.4804 67.1287 77.4804C65.0045 77.4804 63.1543 77.155 61.5783 76.504C60.0108 75.853 58.786 74.8894 57.9037 73.6131C57.03 72.3283 56.5718 70.7394 56.529 68.8465H61.9123C61.9723 69.7287 62.225 70.4653 62.6704 71.0563C63.1244 71.6388 63.7282 72.0799 64.482 72.3797C65.2443 72.6709 66.1051 72.8166 67.0645 72.8166C68.0067 72.8166 68.8247 72.6795 69.5185 72.4054C70.2208 72.1313 70.7648 71.7502 71.1502 71.2619C71.5356 70.7737 71.7284 70.2127 71.7284 69.5788C71.7284 68.9878 71.5528 68.491 71.2016 68.0884C70.859 67.6858 70.3536 67.3432 69.6855 67.0606C69.026 66.7779 68.2165 66.5209 67.2572 66.2897L64.3921 65.5702C62.1736 65.0305 60.422 64.1868 59.1371 63.0391C57.8523 61.8913 57.2142 60.3452 57.2228 58.4009C57.2142 56.8077 57.6382 55.4158 58.4947 54.2252C59.3598 53.0346 60.5462 52.1053 62.0537 51.4372C63.5612 50.7691 65.2743 50.435 67.193 50.435C69.1459 50.435 70.8504 50.7691 72.3065 51.4372C73.7712 52.1053 74.9104 53.0346 75.7242 54.2252C76.5379 55.4158 76.9576 56.7949 76.9833 58.3623H71.6513Z" fill="black"/>
<g filter="url(#filter1_d_66_502)">
<rect x="81.0476" y="12.4327" width="60.8425" height="60.8425" rx="8.11233" transform="rotate(7.2659 81.0476 12.4327)" fill="white"/>
</g>
<path d="M90.1209 47.6413L90.701 43.0914L112.138 45.8246L111.558 50.3745L103.567 49.3557L100.819 70.9075L95.3642 70.212L98.112 48.6602L90.1209 47.6413ZM126.573 55.2939C126.603 54.2528 126.267 53.3983 125.566 52.7305C124.866 52.0626 123.853 51.6442 122.527 51.4752C121.626 51.3603 120.85 51.3908 120.197 51.5667C119.545 51.734 119.026 52.0174 118.638 52.417C118.259 52.8177 118.033 53.2984 117.962 53.8592C117.885 54.3243 117.931 54.7446 118.099 55.1201C118.275 55.4966 118.539 55.8367 118.889 56.1403C119.239 56.4355 119.654 56.7085 120.131 56.9593C120.61 57.2017 121.125 57.4229 121.679 57.6229L123.952 58.4827C125.058 58.8827 126.06 59.3558 126.957 59.902C127.855 60.4482 128.612 61.0758 129.23 61.7849C129.848 62.494 130.294 63.2935 130.569 64.1834C130.853 65.0744 130.929 66.0642 130.799 67.1529C130.587 68.7492 130.003 70.0822 129.046 71.1518C128.099 72.214 126.828 72.9716 125.233 73.4245C123.648 73.87 121.793 73.9573 119.669 73.6865C117.562 73.4178 115.768 72.861 114.287 72.0159C112.814 71.1719 111.721 70.0611 111.007 68.6835C110.303 67.2985 110.05 65.6644 110.247 63.7812L115.587 64.4621C115.535 65.3448 115.692 66.1075 116.059 66.7501C116.436 67.3853 116.979 67.8993 117.689 68.292C118.408 68.6773 119.244 68.9306 120.195 69.0519C121.13 69.1711 121.959 69.1386 122.682 68.9545C123.413 68.7714 124.001 68.4621 124.445 68.0265C124.889 67.591 125.151 67.0588 125.231 66.43C125.306 65.8438 125.195 65.3288 124.897 64.885C124.608 64.4423 124.15 64.0385 123.523 63.6737C122.905 63.3098 122.134 62.9526 121.212 62.6018L118.461 61.5257C116.329 60.7099 114.698 59.6514 113.568 58.3504C112.439 57.0493 112.002 55.435 112.256 53.5073C112.449 51.9258 113.046 50.5987 114.046 49.526C115.055 48.4544 116.349 47.6826 117.929 47.2105C119.509 46.7384 121.25 46.6237 123.154 46.8664C125.091 47.1133 126.739 47.6603 128.099 48.5072C129.468 49.3552 130.48 50.4212 131.137 51.7051C131.793 52.9891 132.035 54.4101 131.863 55.9683L126.573 55.2939Z" fill="black"/>
<g filter="url(#filter2_d_66_502)">
<rect x="128.549" y="31.3846" width="60.8425" height="60.8425" rx="8.69179" transform="rotate(-7.91031 128.549 31.3846)" fill="white"/>
</g>
<path d="M161.038 42.9001C154.908 43.7518 151.522 47.3346 150.835 53.678C152.707 50.3057 155.233 48.7846 158.392 49.1179C160.197 49.3117 161.635 50.3989 163.207 51.6079C165.776 53.5911 168.691 55.8771 174.431 55.0797C180.56 54.228 183.947 50.6451 184.634 44.3017C182.762 47.6741 180.236 49.1952 177.077 48.8618C175.272 48.6681 173.856 47.5776 172.261 46.3718C169.693 44.3887 166.778 42.1026 161.038 42.9001ZM151.473 58.2695C145.344 59.1212 141.957 62.7041 141.27 69.0475C143.142 65.6751 145.668 64.154 148.827 64.4874C150.632 64.6811 152.048 65.7716 153.643 66.9774C156.211 68.9605 159.127 71.2466 164.866 70.4491C170.996 69.5974 174.382 66.0146 175.069 59.6712C173.197 63.0435 170.671 64.5646 167.512 64.2313C165.707 64.0375 164.292 62.9471 162.697 61.7413C160.128 59.7581 157.213 57.4721 151.473 58.2695Z" fill="black"/>
<g filter="url(#filter3_d_66_502)">
<rect x="190.278" y="15.6777" width="60.8425" height="60.8425" rx="8.69179" transform="rotate(2.39411 190.278 15.6777)" fill="white"/>
<g clip-path="url(#clip0_66_502)">
<path d="M219.631 45.1041C221.547 45.1842 223.044 46.8118 222.962 48.7646C222.885 50.6245 221.256 52.14 219.341 52.0599C217.425 51.9798 215.929 50.3336 216.007 48.4738C216.088 46.521 217.716 45.024 219.631 45.1041ZM210.251 63.1379C211.394 63.8936 214.005 62.9222 217.079 60.2561C216.158 59.1184 215.259 57.8884 214.418 56.605C212.926 56.3979 211.445 56.1121 209.983 55.7488C208.868 59.6892 209.107 62.438 210.251 63.1379ZM212.018 52.5176L211.518 51.5466C211.291 52.0774 211.064 52.6082 210.912 53.1235C211.41 53.2561 211.964 53.3724 212.536 53.4895L212.018 52.5176ZM224.241 51.6127L225.864 48.8859L224.474 46.0332C223.957 45.0241 223.399 44.1251 222.896 43.2285C221.894 43.1307 220.834 43.0863 219.718 43.0397C218.602 42.993 217.542 42.9487 216.535 42.9625C215.959 43.8141 215.328 44.6633 214.728 45.6257L213.105 48.3525L214.495 51.2052C215.012 52.2143 215.57 53.1133 216.073 54.01C217.075 54.1078 218.135 54.1521 219.251 54.1987C220.367 54.2454 221.427 54.2897 222.434 54.2759C223.01 53.4243 223.641 52.5751 224.241 51.6127ZM219.89 38.9108C219.52 39.3052 219.13 39.7174 218.737 40.2041L220.932 40.2958C220.581 39.7781 220.227 39.3348 219.89 38.9108ZM219.079 58.3276C219.449 57.9332 219.839 57.521 220.232 57.0344L218.037 56.9426C218.388 57.4603 218.742 57.9036 219.079 58.3276ZM228.699 34.0997C227.575 33.3448 224.964 34.3162 221.89 36.9823C222.811 38.12 223.71 39.35 224.551 40.6334C226.069 40.846 227.567 41.1321 228.986 41.4896C230.101 37.5492 229.862 34.8004 228.699 34.0997ZM226.951 44.7208L227.45 45.6919C227.678 45.1611 227.905 44.6303 228.057 44.1149C227.559 43.9824 227.005 43.866 226.433 43.7489L226.951 44.7208ZM230.196 31.7217C232.864 33.3982 232.99 37.5209 231.636 42.2711C236.302 43.8635 239.609 46.312 239.478 49.4551C239.346 52.5983 235.846 54.7622 231.064 55.9595C232.017 60.8061 231.547 64.9039 228.748 66.3519C225.967 67.8006 222.341 65.8604 218.912 62.3076C215.199 65.5619 211.423 67.1926 208.755 65.516C206.105 63.8402 205.979 59.7175 207.333 54.9673C202.667 53.3749 199.36 50.9264 199.491 47.7833C199.623 44.6402 203.123 42.4763 207.905 41.2789C206.952 36.4323 207.422 32.3345 210.202 30.8858C213.002 29.4378 216.628 31.378 220.057 34.9308C223.77 31.6766 227.546 30.0459 230.196 31.7217ZM228.932 49.0142C229.507 50.4355 230.006 51.8538 230.412 53.2867C234.367 52.2783 236.631 50.6962 236.688 49.3385C236.745 47.9808 234.62 46.2152 230.763 44.8802C230.239 46.2742 229.623 47.6458 228.932 49.0142ZM210.037 48.2242C209.462 46.8029 208.963 45.3847 208.557 43.9518C204.602 44.9602 202.338 46.5423 202.281 47.8999C202.224 49.2576 204.349 51.0232 208.206 52.3582C208.73 50.9642 209.346 49.5926 210.037 48.2242ZM226.599 53.1273L226.002 54.0525C226.582 53.9836 227.144 53.9139 227.651 53.8233C227.542 53.2971 227.36 52.7492 227.178 52.2013L226.599 53.1273ZM220.91 60.4163C223.751 63.3297 226.272 64.5157 227.455 63.8572C228.672 63.256 229.14 60.5368 228.358 56.5171C226.913 56.7548 225.398 56.915 223.866 57C222.922 58.2088 221.923 59.3594 220.91 60.4163ZM212.37 44.1112L212.967 43.186C212.387 43.2549 211.825 43.3245 211.318 43.4151C211.427 43.9413 211.609 44.4892 211.791 45.0371L212.37 44.1112ZM218.059 36.8221C215.218 33.9087 212.697 32.7227 211.496 33.3805C210.297 33.9824 209.829 36.7016 210.611 40.7213C212.099 40.4814 213.598 40.3202 215.103 40.2384C216.047 39.0296 217.046 37.879 218.059 36.8221Z" fill="black"/>
</g>
</g>
<defs>
<filter id="filter0_d_66_502" x="0.266269" y="8.62348" width="93.2919" height="93.2918" filterUnits="userSpaceOnUse" color-interpolation-filters="sRGB">
<feFlood flood-opacity="0" result="BackgroundImageFix"/>
<feColorMatrix in="SourceAlpha" type="matrix" values="0 0 0 0 0 0 0 0 0 0 0 0 0 0 0 0 0 0 127 0" result="hardAlpha"/>
<feOffset dx="-8.11233" dy="3.24493"/>
<feGaussianBlur stdDeviation="8.11233"/>
<feComposite in2="hardAlpha" operator="out"/>
<feColorMatrix type="matrix" values="0 0 0 0 0 0 0 0 0 0 0 0 0 0 0 0 0 0 0.25 0"/>
<feBlend mode="normal" in2="BackgroundImageFix" result="effect1_dropShadow_66_502"/>
<feBlend mode="normal" in="SourceGraphic" in2="effect1_dropShadow_66_502" result="shape"/>
</filter>
<filter id="filter1_d_66_502" x="49.9755" y="0.412996" width="98.5785" height="98.5783" filterUnits="userSpaceOnUse" color-interpolation-filters="sRGB">
<feFlood flood-opacity="0" result="BackgroundImageFix"/>
<feColorMatrix in="SourceAlpha" type="matrix" values="0 0 0 0 0 0 0 0 0 0 0 0 0 0 0 0 0 0 127 0" result="hardAlpha"/>
<feOffset dx="-8.11233" dy="3.24493"/>
<feGaussianBlur stdDeviation="8.11233"/>
<feComposite in2="hardAlpha" operator="out"/>
<feColorMatrix type="matrix" values="0 0 0 0 0 0 0 0 0 0 0 0 0 0 0 0 0 0 0.25 0"/>
<feBlend mode="normal" in2="BackgroundImageFix" result="effect1_dropShadow_66_502"/>
<feBlend mode="normal" in="SourceGraphic" in2="effect1_dropShadow_66_502" result="shape"/>
</filter>
<filter id="filter2_d_66_502" x="105.324" y="11.144" width="98.8614" height="98.8614" filterUnits="userSpaceOnUse" color-interpolation-filters="sRGB">
<feFlood flood-opacity="0" result="BackgroundImageFix"/>
<feColorMatrix in="SourceAlpha" type="matrix" values="0 0 0 0 0 0 0 0 0 0 0 0 0 0 0 0 0 0 127 0" result="hardAlpha"/>
<feOffset dx="-8.11233" dy="3.24493"/>
<feGaussianBlur stdDeviation="8.11233"/>
<feComposite in2="hardAlpha" operator="out"/>
<feColorMatrix type="matrix" values="0 0 0 0 0 0 0 0 0 0 0 0 0 0 0 0 0 0 0.25 0"/>
<feBlend mode="normal" in2="BackgroundImageFix" result="effect1_dropShadow_66_502"/>
<feBlend mode="normal" in="SourceGraphic" in2="effect1_dropShadow_66_502" result="shape"/>
</filter>
<filter id="filter3_d_66_502" x="163.755" y="3.05329" width="95.0697" height="95.0696" filterUnits="userSpaceOnUse" color-interpolation-filters="sRGB">
<feFlood flood-opacity="0" result="BackgroundImageFix"/>
<feColorMatrix in="SourceAlpha" type="matrix" values="0 0 0 0 0 0 0 0 0 0 0 0 0 0 0 0 0 0 127 0" result="hardAlpha"/>
<feOffset dx="-8.11233" dy="3.24493"/>
<feGaussianBlur stdDeviation="8.11233"/>
<feComposite in2="hardAlpha" operator="out"/>
<feColorMatrix type="matrix" values="0 0 0 0 0 0 0 0 0 0 0 0 0 0 0 0 0 0 0.25 0"/>
<feBlend mode="normal" in2="BackgroundImageFix" result="effect1_dropShadow_66_502"/>
<feBlend mode="normal" in="SourceGraphic" in2="effect1_dropShadow_66_502" result="shape"/>
</filter>
<clipPath id="clip0_66_502">
<rect width="39.7504" height="39.7504" fill="white" transform="translate(200.375 26.6551) rotate(2.39411)"/>
</clipPath>
</defs>
</svg>
