<svg width="456" height="38" viewBox="0 0 456 38" fill="none" xmlns="http://www.w3.org/2000/svg">
<path d="M111.58 16.5269C111.095 16.8065 110.705 17.2235 110.457 17.7251C110.21 18.2267 110.117 18.7903 110.19 19.3448C110.263 19.8993 110.499 20.4197 110.867 20.8402C111.236 21.2607 111.721 21.5624 112.261 21.7072C112.802 21.852 113.373 21.8333 113.902 21.6536C114.432 21.4739 114.896 21.1412 115.237 20.6976C115.577 20.2539 115.779 19.7193 115.815 19.1612C115.852 18.6031 115.722 18.0467 115.443 17.5624C115.257 17.2407 115.01 16.9587 114.715 16.7325C114.421 16.5064 114.084 16.3405 113.726 16.2443C113.367 16.1482 112.993 16.1236 112.624 16.1721C112.256 16.2206 111.901 16.3411 111.58 16.5269ZM124.254 19.5954C124.068 19.3832 123.873 19.1705 123.667 18.9573C123.81 18.8053 123.95 18.6538 124.085 18.5029C126.626 15.6465 127.699 12.7807 126.705 11.0596C125.752 9.40819 122.916 8.91577 119.365 9.6061C119.015 9.67472 118.668 9.75177 118.321 9.83727C118.255 9.60927 118.185 9.38233 118.111 9.15644C116.906 5.52585 114.96 3.1651 112.971 3.16669C111.065 3.16669 109.222 5.3786 108.046 8.80019C107.929 9.13797 107.822 9.47785 107.724 9.81985C107.493 9.76285 107.261 9.71008 107.027 9.66152C103.281 8.8936 100.265 9.40027 99.2723 11.1245C98.3207 12.7759 99.315 15.4787 101.692 18.2052C101.928 18.4744 102.171 18.7382 102.42 18.9969C102.125 19.2987 101.848 19.6001 101.589 19.9009C99.2691 22.5894 98.3318 25.2463 99.2818 26.8914C100.263 28.5919 103.237 29.1476 106.858 28.4351C107.151 28.377 107.443 28.3116 107.734 28.2388C107.839 28.6093 107.956 28.9771 108.084 29.3424C109.255 32.6943 111.087 34.8334 112.987 34.8334C114.95 34.8334 116.917 32.5328 118.109 29.0399C118.203 28.7634 118.292 28.4779 118.377 28.1834C118.751 28.2762 119.129 28.3586 119.509 28.4304C122.997 29.0906 125.766 28.5729 126.715 26.9262C127.695 25.2241 126.683 22.3709 124.254 19.5954ZM100.444 11.799C101.055 10.7382 103.52 10.3234 106.755 10.9884C106.962 11.0306 107.173 11.0781 107.387 11.1309C107.071 12.528 106.848 13.9444 106.719 15.371C105.552 16.1917 104.44 17.0865 103.389 18.05C103.158 17.8104 102.932 17.565 102.713 17.3138C100.675 14.9799 99.8708 12.7949 100.444 11.799ZM106.598 20.8684C105.791 20.2556 105.039 19.6286 104.356 18.9984C105.037 18.3714 105.789 17.7476 106.597 17.1364C106.567 17.7582 106.553 18.3804 106.554 19.0032C106.554 19.626 106.569 20.2477 106.598 20.8684ZM106.598 27.1067C105.226 27.4137 103.809 27.4641 102.418 27.2555C102.037 27.2253 101.666 27.1175 101.328 26.9386C100.99 26.7597 100.693 26.5135 100.453 26.2153C99.8755 25.2178 100.629 23.0834 102.613 20.7844C102.862 20.4963 103.12 20.2155 103.386 19.9421C104.437 20.9119 105.552 21.811 106.722 22.6338C106.853 24.0783 107.078 25.5127 107.396 26.9278C107.132 26.9943 106.866 27.0544 106.597 27.1083M117.838 14.3799C117.307 14.0452 116.77 13.7217 116.227 13.4093C115.69 13.101 115.148 12.8039 114.601 12.5179C115.501 12.1382 116.42 11.8026 117.354 11.5124C117.564 12.4594 117.726 13.4164 117.838 14.3799ZM109.326 9.23877C110.333 6.3096 111.825 4.52044 112.974 4.52044C114.198 4.51885 115.788 6.44894 116.828 9.58235C116.896 9.78713 116.959 9.99297 117.018 10.1999C115.653 10.6232 114.317 11.1362 113.019 11.7357C111.725 11.1285 110.392 10.6096 109.029 10.1824C109.121 9.86577 109.22 9.55122 109.326 9.23877ZM108.693 11.4934C109.623 11.7852 110.537 12.1245 111.432 12.5099C110.322 13.082 109.241 13.7054 108.19 14.3799C108.316 13.3697 108.486 12.4023 108.693 11.4934ZM108.191 23.6218C108.716 23.9585 109.248 24.282 109.789 24.5924C110.34 24.909 110.898 25.213 111.462 25.5044C110.561 25.9028 109.639 26.2543 108.701 26.5573C108.483 25.5883 108.313 24.6091 108.191 23.6234M116.83 28.6045C116.41 29.9462 115.745 31.1985 114.87 32.2984C114.653 32.6137 114.375 32.8814 114.052 33.0851C113.728 33.2887 113.366 33.4241 112.989 33.4828C111.834 33.4828 110.364 31.7649 109.363 28.8974C109.245 28.5586 109.136 28.2166 109.037 27.8714C110.407 27.43 111.745 26.8958 113.043 26.2723C114.352 26.8758 115.699 27.3936 117.075 27.8224C116.999 28.0852 116.917 28.3459 116.83 28.6045ZM117.403 26.5082C116.457 26.2134 115.526 25.872 114.613 25.4854C115.15 25.2035 115.691 24.9053 116.236 24.5908C116.796 24.2678 117.34 23.9369 117.87 23.598C117.765 24.5755 117.609 25.5468 117.403 26.5082ZM118.111 18.9984C118.111 19.96 118.081 20.9206 118.021 21.8801C117.238 22.41 116.418 22.923 115.56 23.4191C114.705 23.912 113.862 24.3638 113.031 24.7744C112.158 24.3564 111.302 23.9057 110.463 23.4223C109.629 22.942 108.814 22.4306 108.019 21.888C107.945 20.9275 107.908 19.9659 107.908 19.0032C107.908 18.0416 107.944 17.0805 108.015 16.1199C109.607 15.0324 111.278 14.0675 113.016 13.2335C113.877 13.6526 114.723 14.1017 115.554 14.5809C116.388 15.0602 117.206 15.5663 118.008 16.0994C118.076 17.0641 118.111 18.0305 118.111 18.9984ZM119.624 10.9345C122.668 10.3439 124.96 10.7414 125.535 11.7373C126.148 12.7981 125.271 15.1383 123.075 17.6051C122.953 17.7413 122.828 17.878 122.698 18.0152C121.628 17.0481 120.494 16.1551 119.303 15.3425C119.183 13.9317 118.969 12.5304 118.662 11.1483C118.989 11.068 119.31 10.9968 119.624 10.9345ZM119.419 17.0858C120.223 17.6719 120.995 18.2998 121.733 18.9668C120.999 19.6443 120.228 20.2828 119.427 20.8794C119.451 20.2524 119.463 19.6254 119.463 18.9984C119.463 18.3609 119.448 17.7233 119.419 17.0858ZM125.545 26.2517C124.968 27.2508 122.745 27.6672 119.761 27.1035C119.419 27.0391 119.068 26.9621 118.709 26.8724C119.009 25.4723 119.214 24.0536 119.322 22.6259C120.511 21.7991 121.641 20.8919 122.706 19.9104C122.892 20.1036 123.07 20.2957 123.238 20.4868C124.19 21.5208 124.943 22.7222 125.459 24.0303C125.624 24.3751 125.717 24.7501 125.731 25.1321C125.746 25.5142 125.683 25.8952 125.545 26.2517Z" fill="#737373"/>
<path d="M142.37 23L140.399 19.5763H139.328V23H137.924V14.4407H140.879C141.536 14.4407 142.09 14.5556 142.542 14.7855C143.002 15.0154 143.343 15.3233 143.564 15.7092C143.794 16.0951 143.909 16.5261 143.909 17.0023C143.909 17.5606 143.745 18.0697 143.416 18.5295C143.096 18.981 142.599 19.2889 141.926 19.4531L144.044 23H142.37ZM139.328 18.4556H140.879C141.405 18.4556 141.799 18.3242 142.062 18.0615C142.333 17.7987 142.468 17.4457 142.468 17.0023C142.468 16.559 142.337 16.2141 142.074 15.9678C141.811 15.7133 141.413 15.586 140.879 15.586H139.328V18.4556ZM151.924 19.4408C151.924 19.6953 151.908 19.9252 151.875 20.1305H146.69C146.731 20.6724 146.933 21.1075 147.294 21.4359C147.655 21.7643 148.098 21.9285 148.624 21.9285C149.379 21.9285 149.913 21.6124 150.225 20.9803H151.74C151.534 21.6042 151.161 22.1174 150.619 22.5197C150.085 22.9138 149.42 23.1108 148.624 23.1108C147.975 23.1108 147.392 22.9672 146.875 22.6798C146.366 22.3842 145.964 21.9737 145.668 21.4482C145.381 20.9146 145.237 20.2988 145.237 19.6009C145.237 18.903 145.377 18.2914 145.656 17.7659C145.943 17.2322 146.341 16.8217 146.85 16.5343C147.368 16.247 147.959 16.1033 148.624 16.1033C149.264 16.1033 149.835 16.2429 150.336 16.522C150.837 16.8012 151.227 17.1953 151.506 17.7043C151.785 18.2051 151.924 18.784 151.924 19.4408ZM150.459 18.9974C150.451 18.4802 150.266 18.0656 149.905 17.7536C149.543 17.4416 149.096 17.2856 148.562 17.2856C148.078 17.2856 147.663 17.4416 147.318 17.7536C146.974 18.0574 146.768 18.472 146.703 18.9974H150.459ZM152.838 19.5763C152.838 18.8948 152.978 18.2914 153.257 17.7659C153.544 17.2404 153.93 16.834 154.414 16.5467C154.907 16.2511 155.449 16.1033 156.04 16.1033C156.574 16.1033 157.038 16.21 157.432 16.4235C157.834 16.6288 158.154 16.8874 158.392 17.1994V16.2141H159.809V23H158.392V21.9901C158.154 22.3103 157.83 22.5772 157.419 22.7906C157.009 23.0041 156.541 23.1108 156.015 23.1108C155.433 23.1108 154.899 22.9631 154.414 22.6675C153.93 22.3637 153.544 21.945 153.257 21.4113C152.978 20.8694 152.838 20.2577 152.838 19.5763ZM158.392 19.6009C158.392 19.1329 158.294 18.7265 158.097 18.3817C157.908 18.0368 157.658 17.7741 157.346 17.5935C157.034 17.4128 156.697 17.3225 156.336 17.3225C155.974 17.3225 155.638 17.4128 155.326 17.5935C155.014 17.7659 154.759 18.0245 154.562 18.3694C154.373 18.706 154.279 19.1083 154.279 19.5763C154.279 20.0443 154.373 20.4548 154.562 20.8078C154.759 21.1609 155.014 21.4318 155.326 21.6207C155.646 21.8013 155.983 21.8916 156.336 21.8916C156.697 21.8916 157.034 21.8013 157.346 21.6207C157.658 21.44 157.908 21.1773 158.097 20.8325C158.294 20.4794 158.392 20.0689 158.392 19.6009ZM161.185 19.6009C161.185 18.903 161.324 18.2914 161.603 17.7659C161.891 17.2322 162.285 16.8217 162.786 16.5343C163.287 16.247 163.861 16.1033 164.51 16.1033C165.331 16.1033 166.008 16.3003 166.542 16.6944C167.084 17.0803 167.449 17.6345 167.638 18.357H166.123C166 18.0204 165.803 17.7577 165.532 17.5688C165.261 17.38 164.92 17.2856 164.51 17.2856C163.935 17.2856 163.475 17.4908 163.131 17.9014C162.794 18.3037 162.626 18.8702 162.626 19.6009C162.626 20.3316 162.794 20.9023 163.131 21.3128C163.475 21.7233 163.935 21.9285 164.51 21.9285C165.323 21.9285 165.861 21.5714 166.123 20.8571H167.638C167.441 21.5468 167.072 22.0969 166.53 22.5074C165.988 22.9097 165.315 23.1108 164.51 23.1108C163.861 23.1108 163.287 22.9672 162.786 22.6798C162.285 22.3842 161.891 21.9737 161.603 21.4482C161.324 20.9146 161.185 20.2988 161.185 19.6009ZM170.675 17.3595V21.1157C170.675 21.3702 170.733 21.555 170.848 21.6699C170.971 21.7767 171.176 21.83 171.463 21.83H172.326V23H171.217C170.585 23 170.1 22.8522 169.764 22.5566C169.427 22.2611 169.259 21.7808 169.259 21.1157V17.3595H168.458V16.2141H169.259V14.5269H170.675V16.2141H172.326V17.3595H170.675Z" fill="#737373"/>
<path d="M207.5 9.25C203.384 9.25 200.825 11.3004 199.792 15.4167C201.333 13.3662 203.137 12.5954 205.187 13.1042C206.359 13.3971 207.207 14.245 208.132 15.1854C209.643 16.7271 211.354 18.5 215.208 18.5C219.325 18.5 221.884 16.4496 222.917 12.3333C221.375 14.3837 219.571 15.1546 217.521 14.6458C216.349 14.3529 215.517 13.505 214.576 12.5646C213.065 11.0229 211.354 9.25 207.5 9.25ZM199.792 18.5C195.675 18.5 193.116 20.5504 192.083 24.6667C193.625 22.6162 195.429 21.8454 197.479 22.3542C198.651 22.6471 199.483 23.495 200.424 24.4354C201.935 25.9771 203.646 27.75 207.5 27.75C211.616 27.75 214.175 25.6996 215.208 21.5833C213.667 23.6337 211.863 24.4046 209.812 23.8958C208.641 23.6029 207.808 22.755 206.868 21.8146C205.357 20.2729 203.646 18.5 199.792 18.5Z" fill="#575757"/>
<path d="M237.453 14.4407V15.586H235.175V23H233.771V15.586H231.48V14.4407H237.453ZM238.407 19.5763C238.407 18.8948 238.547 18.2914 238.826 17.7659C239.113 17.2404 239.499 16.834 239.984 16.5467C240.476 16.2511 241.018 16.1033 241.609 16.1033C242.143 16.1033 242.607 16.21 243.001 16.4235C243.403 16.6288 243.723 16.8874 243.962 17.1994V16.2141H245.378V23H243.962V21.9901C243.723 22.3103 243.399 22.5772 242.989 22.7906C242.578 23.0041 242.11 23.1108 241.585 23.1108C241.002 23.1108 240.468 22.9631 239.984 22.6675C239.499 22.3637 239.113 21.945 238.826 21.4113C238.547 20.8694 238.407 20.2577 238.407 19.5763ZM243.962 19.6009C243.962 19.1329 243.863 18.7265 243.666 18.3817C243.477 18.0368 243.227 17.7741 242.915 17.5935C242.603 17.4128 242.266 17.3225 241.905 17.3225C241.544 17.3225 241.207 17.4128 240.895 17.5935C240.583 17.7659 240.328 18.0245 240.131 18.3694C239.943 18.706 239.848 19.1083 239.848 19.5763C239.848 20.0443 239.943 20.4548 240.131 20.8078C240.328 21.1609 240.583 21.4318 240.895 21.6207C241.215 21.8013 241.552 21.8916 241.905 21.8916C242.266 21.8916 242.603 21.8013 242.915 21.6207C243.227 21.44 243.477 21.1773 243.666 20.8325C243.863 20.4794 243.962 20.0689 243.962 19.6009ZM247.936 15.3151C247.682 15.3151 247.468 15.2289 247.296 15.0565C247.123 14.8841 247.037 14.6706 247.037 14.4161C247.037 14.1615 247.123 13.9481 247.296 13.7757C247.468 13.6032 247.682 13.517 247.936 13.517C248.182 13.517 248.392 13.6032 248.564 13.7757C248.737 13.9481 248.823 14.1615 248.823 14.4161C248.823 14.6706 248.737 14.8841 248.564 15.0565C248.392 15.2289 248.182 15.3151 247.936 15.3151ZM248.626 16.2141V23H247.222V16.2141H248.626ZM251.873 13.8865V23H250.469V13.8865H251.873ZM262.83 16.2141L260.724 23H259.246L257.879 17.9876L256.512 23H255.034L252.916 16.2141H254.345L255.761 21.6699L257.202 16.2141H258.667L260.047 21.6453L261.451 16.2141H262.83ZM264.593 15.3151C264.339 15.3151 264.125 15.2289 263.953 15.0565C263.781 14.8841 263.694 14.6706 263.694 14.4161C263.694 14.1615 263.781 13.9481 263.953 13.7757C264.125 13.6032 264.339 13.517 264.593 13.517C264.84 13.517 265.049 13.6032 265.222 13.7757C265.394 13.9481 265.48 14.1615 265.48 14.4161C265.48 14.6706 265.394 14.8841 265.222 15.0565C265.049 15.2289 264.84 15.3151 264.593 15.3151ZM265.283 16.2141V23H263.879V16.2141H265.283ZM270.55 16.1033C271.084 16.1033 271.56 16.2141 271.979 16.4358C272.406 16.6575 272.738 16.9859 272.976 17.4211C273.214 17.8562 273.333 18.3817 273.333 18.9974V23H271.942V19.2068C271.942 18.5992 271.79 18.1354 271.486 17.8152C271.182 17.4867 270.768 17.3225 270.242 17.3225C269.717 17.3225 269.298 17.4867 268.986 17.8152C268.682 18.1354 268.53 18.5992 268.53 19.2068V23H267.126V16.2141H268.53V16.99C268.76 16.7109 269.052 16.4933 269.405 16.3373C269.766 16.1813 270.148 16.1033 270.55 16.1033ZM274.656 19.5763C274.656 18.8948 274.796 18.2914 275.075 17.7659C275.362 17.2404 275.748 16.834 276.233 16.5467C276.725 16.2511 277.271 16.1033 277.871 16.1033C278.314 16.1033 278.749 16.2018 279.176 16.3989C279.611 16.5877 279.956 16.8422 280.211 17.1624V13.8865H281.627V23H280.211V21.9778C279.981 22.3062 279.661 22.5772 279.25 22.7906C278.848 23.0041 278.384 23.1108 277.858 23.1108C277.267 23.1108 276.725 22.9631 276.233 22.6675C275.748 22.3637 275.362 21.945 275.075 21.4113C274.796 20.8694 274.656 20.2577 274.656 19.5763ZM280.211 19.6009C280.211 19.1329 280.112 18.7265 279.915 18.3817C279.726 18.0368 279.476 17.7741 279.164 17.5935C278.852 17.4128 278.515 17.3225 278.154 17.3225C277.793 17.3225 277.456 17.4128 277.144 17.5935C276.832 17.7659 276.578 18.0245 276.38 18.3694C276.192 18.706 276.097 19.1083 276.097 19.5763C276.097 20.0443 276.192 20.4548 276.38 20.8078C276.578 21.1609 276.832 21.4318 277.144 21.6207C277.464 21.8013 277.801 21.8916 278.154 21.8916C278.515 21.8916 278.852 21.8013 279.164 21.6207C279.476 21.44 279.726 21.1773 279.915 20.8325C280.112 20.4794 280.211 20.0689 280.211 19.6009ZM283.003 18.7019C283.003 17.8644 283.196 17.1132 283.582 16.4481C283.976 15.7831 284.505 15.2658 285.171 14.8964C285.844 14.5187 286.579 14.3299 287.375 14.3299C288.286 14.3299 289.095 14.5556 289.801 15.0072C290.515 15.4506 291.033 16.0828 291.353 16.9038H289.666C289.444 16.4522 289.136 16.1156 288.742 15.8939C288.348 15.6723 287.892 15.5614 287.375 15.5614C286.808 15.5614 286.304 15.6887 285.86 15.9432C285.417 16.1977 285.068 16.5631 284.813 17.0393C284.567 17.5155 284.444 18.0697 284.444 18.7019C284.444 19.3341 284.567 19.8883 284.813 20.3645C285.068 20.8407 285.417 21.2101 285.86 21.4729C286.304 21.7274 286.808 21.8547 287.375 21.8547C287.892 21.8547 288.348 21.7438 288.742 21.5221C289.136 21.3005 289.444 20.9638 289.666 20.5123H291.353C291.033 21.3333 290.515 21.9655 289.801 22.4089C289.095 22.8522 288.286 23.0739 287.375 23.0739C286.57 23.0739 285.836 22.8892 285.171 22.5197C284.505 22.142 283.976 21.6207 283.582 20.9556C283.196 20.2906 283.003 19.5393 283.003 18.7019ZM295.817 23.0862C295.242 23.0862 294.725 22.9877 294.265 22.7906C293.805 22.5854 293.444 22.298 293.181 21.9285C292.918 21.5591 292.787 21.128 292.787 20.6354H294.289C294.322 21.0049 294.466 21.3087 294.72 21.5468C294.983 21.7849 295.349 21.9039 295.817 21.9039C296.301 21.9039 296.679 21.789 296.95 21.5591C297.22 21.321 297.356 21.0172 297.356 20.6477C297.356 20.3604 297.27 20.1264 297.097 19.9457C296.933 19.7651 296.724 19.6255 296.469 19.527C296.223 19.4285 295.878 19.3218 295.435 19.2068C294.876 19.059 294.421 18.9112 294.068 18.7635C293.723 18.6075 293.427 18.3694 293.181 18.0492C292.935 17.7289 292.812 17.302 292.812 16.7683C292.812 16.2757 292.935 15.8447 293.181 15.4752C293.427 15.1057 293.772 14.8225 294.216 14.6254C294.659 14.4284 295.172 14.3299 295.755 14.3299C296.584 14.3299 297.262 14.5392 297.787 14.9579C298.321 15.3685 298.616 15.935 298.674 16.6575H297.122C297.097 16.3455 296.95 16.0787 296.679 15.857C296.408 15.6353 296.051 15.5245 295.607 15.5245C295.205 15.5245 294.876 15.6271 294.622 15.8324C294.367 16.0376 294.24 16.3332 294.24 16.7191C294.24 16.9818 294.318 17.1994 294.474 17.3718C294.638 17.536 294.844 17.6674 295.09 17.7659C295.336 17.8644 295.673 17.9712 296.1 18.0861C296.666 18.2421 297.126 18.3981 297.479 18.5541C297.84 18.7101 298.144 18.9523 298.39 19.2807C298.645 19.6009 298.772 20.032 298.772 20.5738C298.772 21.009 298.653 21.4195 298.415 21.8054C298.185 22.1913 297.844 22.5033 297.393 22.7414C296.95 22.9713 296.424 23.0862 295.817 23.0862ZM303.249 23.0862C302.674 23.0862 302.157 22.9877 301.697 22.7906C301.238 22.5854 300.876 22.298 300.614 21.9285C300.351 21.5591 300.22 21.128 300.22 20.6354H301.722C301.755 21.0049 301.899 21.3087 302.153 21.5468C302.416 21.7849 302.781 21.9039 303.249 21.9039C303.734 21.9039 304.111 21.789 304.382 21.5591C304.653 21.321 304.789 21.0172 304.789 20.6477C304.789 20.3604 304.702 20.1264 304.53 19.9457C304.366 19.7651 304.156 19.6255 303.902 19.527C303.656 19.4285 303.311 19.3218 302.867 19.2068C302.309 19.059 301.853 18.9112 301.5 18.7635C301.156 18.6075 300.86 18.3694 300.614 18.0492C300.367 17.7289 300.244 17.302 300.244 16.7683C300.244 16.2757 300.367 15.8447 300.614 15.4752C300.86 15.1057 301.205 14.8225 301.648 14.6254C302.091 14.4284 302.605 14.3299 303.188 14.3299C304.017 14.3299 304.694 14.5392 305.22 14.9579C305.753 15.3685 306.049 15.935 306.106 16.6575H304.555C304.53 16.3455 304.382 16.0787 304.111 15.857C303.84 15.6353 303.483 15.5245 303.04 15.5245C302.637 15.5245 302.309 15.6271 302.055 15.8324C301.8 16.0376 301.673 16.3332 301.673 16.7191C301.673 16.9818 301.751 17.1994 301.907 17.3718C302.071 17.536 302.276 17.6674 302.523 17.7659C302.769 17.8644 303.105 17.9712 303.532 18.0861C304.099 18.2421 304.559 18.3981 304.912 18.5541C305.273 18.7101 305.577 18.9523 305.823 19.2807C306.078 19.6009 306.205 20.032 306.205 20.5738C306.205 21.009 306.086 21.4195 305.848 21.8054C305.618 22.1913 305.277 22.5033 304.826 22.7414C304.382 22.9713 303.857 23.0862 303.249 23.0862Z" fill="#737373"/>
<g clip-path="url(#clip0_40_81)">
<path d="M8.1 13.1L8.829 12.5726C8.71749 12.4186 8.56005 12.3038 8.37928 12.2448C8.19851 12.1858 8.0037 12.1856 7.82279 12.2441C7.64187 12.3027 7.48416 12.4171 7.37228 12.5708C7.26039 12.7246 7.20008 12.9098 7.2 13.1H8.1ZM13.5 30.2C10.397 30.2 7.42103 28.9673 5.22685 26.7731C3.03267 24.579 1.8 21.603 1.8 18.5H0C0 22.0804 1.42232 25.5142 3.95406 28.0459C6.4858 30.5777 9.91958 32 13.5 32V30.2ZM25.2 18.5C25.2 20.0365 24.8974 21.5579 24.3094 22.9774C23.7214 24.3969 22.8596 25.6867 21.7731 26.7731C20.6867 27.8596 19.3969 28.7214 17.9774 29.3094C16.5579 29.8974 15.0365 30.2 13.5 30.2V32C17.0804 32 20.5142 30.5777 23.0459 28.0459C25.5777 25.5142 27 22.0804 27 18.5H25.2ZM13.5 6.8C15.0365 6.8 16.5579 7.10263 17.9774 7.69061C19.3969 8.27859 20.6867 9.14041 21.7731 10.2269C22.8596 11.3133 23.7214 12.6031 24.3094 14.0226C24.8974 15.4421 25.2 16.9635 25.2 18.5H27C27 14.9196 25.5777 11.4858 23.0459 8.95406C20.5142 6.42232 17.0804 5 13.5 5V6.8ZM13.5 5C9.91958 5 6.4858 6.42232 3.95406 8.95406C1.42232 11.4858 0 14.9196 0 18.5H1.8C1.8 15.397 3.03267 12.421 5.22685 10.2269C7.42103 8.03267 10.397 6.8 13.5 6.8V5ZM9 26.6V13.1H7.2V26.6H9ZM7.371 13.6274L19.071 29.8274L20.529 28.7726L8.829 12.5726L7.371 13.6274ZM18 12.2V23H19.8V12.2H18Z" fill="#737373"/>
</g>
<path d="M44.9558 23H43.5519L39.3276 16.6082V23H37.9237V14.4284H39.3276L43.5519 20.8078V14.4284H44.9558V23ZM53.0189 19.4408C53.0189 19.6953 53.0024 19.9252 52.9696 20.1305H47.7848C47.8258 20.6724 48.027 21.1075 48.3882 21.4359C48.7495 21.7643 49.1928 21.9285 49.7183 21.9285C50.4737 21.9285 51.0073 21.6124 51.3193 20.9803H52.8341C52.6289 21.6042 52.2553 22.1174 51.7134 22.5197C51.1797 22.9138 50.5147 23.1108 49.7183 23.1108C49.0697 23.1108 48.4867 22.9672 47.9695 22.6798C47.4605 22.3842 47.0581 21.9737 46.7626 21.4482C46.4752 20.9146 46.3315 20.2988 46.3315 19.6009C46.3315 18.903 46.4711 18.2914 46.7503 17.7659C47.0376 17.2322 47.4358 16.8217 47.9449 16.5343C48.4621 16.247 49.0533 16.1033 49.7183 16.1033C50.3587 16.1033 50.9293 16.2429 51.4302 16.522C51.931 16.8012 52.321 17.1953 52.6001 17.7043C52.8793 18.2051 53.0189 18.784 53.0189 19.4408ZM51.5533 18.9974C51.5451 18.4802 51.3604 18.0656 50.9991 17.7536C50.6379 17.4416 50.1904 17.2856 49.6567 17.2856C49.1723 17.2856 48.7577 17.4416 48.4129 17.7536C48.068 18.0574 47.8628 18.472 47.7971 18.9974H51.5533ZM57.307 19.564L59.4992 23H57.9104L56.4449 20.697L55.0656 23H53.6L55.7922 19.6625L53.6 16.2141H55.1887L56.6543 18.5171L58.0336 16.2141H59.4992L57.307 19.564ZM62.1842 17.3595V21.1157C62.1842 21.3702 62.2417 21.555 62.3566 21.6699C62.4798 21.7767 62.6851 21.83 62.9724 21.83H63.8345V23H62.7261C62.0939 23 61.6095 22.8522 61.2729 22.5566C60.9363 22.2611 60.7679 21.7808 60.7679 21.1157V17.3595H59.9674V16.2141H60.7679V14.5269H62.1842V16.2141H63.8345V17.3595H62.1842ZM69.7961 14.4407V20.6108C69.7961 21.3743 69.5621 21.9778 69.0941 22.4212C68.6343 22.8645 68.0268 23.0862 67.2714 23.0862C66.5161 23.0862 65.9044 22.8645 65.4364 22.4212C64.9766 21.9778 64.7467 21.3743 64.7467 20.6108H66.163C66.1712 20.9885 66.2656 21.2881 66.4463 21.5098C66.6351 21.7315 66.9102 21.8423 67.2714 21.8423C67.6327 21.8423 67.9077 21.7315 68.0966 21.5098C68.2854 21.2799 68.3798 20.9803 68.3798 20.6108V14.4407H69.7961ZM74.9003 23.0862C74.3256 23.0862 73.8083 22.9877 73.3486 22.7906C72.8888 22.5854 72.5275 22.298 72.2648 21.9285C72.0021 21.5591 71.8707 21.128 71.8707 20.6354H73.3732C73.406 21.0049 73.5497 21.3087 73.8042 21.5468C74.067 21.7849 74.4323 21.9039 74.9003 21.9039C75.3847 21.9039 75.7624 21.789 76.0334 21.5591C76.3043 21.321 76.4398 21.0172 76.4398 20.6477C76.4398 20.3604 76.3536 20.1264 76.1811 19.9457C76.0169 19.7651 75.8076 19.6255 75.553 19.527C75.3067 19.4285 74.9619 19.3218 74.5185 19.2068C73.9602 19.059 73.5046 18.9112 73.1515 18.7635C72.8067 18.6075 72.5111 18.3694 72.2648 18.0492C72.0185 17.7289 71.8953 17.302 71.8953 16.7683C71.8953 16.2757 72.0185 15.8447 72.2648 15.4752C72.5111 15.1057 72.8559 14.8225 73.2993 14.6254C73.7427 14.4284 74.2558 14.3299 74.8387 14.3299C75.668 14.3299 76.3453 14.5392 76.8708 14.9579C77.4045 15.3685 77.7001 15.935 77.7575 16.6575H76.2058C76.1811 16.3455 76.0334 16.0787 75.7624 15.857C75.4915 15.6353 75.1343 15.5245 74.691 15.5245C74.2886 15.5245 73.9602 15.6271 73.7057 15.8324C73.4512 16.0376 73.3239 16.3332 73.3239 16.7191C73.3239 16.9818 73.4019 17.1994 73.5579 17.3718C73.7221 17.536 73.9274 17.6674 74.1737 17.7659C74.42 17.8644 74.7566 17.9712 75.1836 18.0861C75.7501 18.2421 76.2099 18.3981 76.5629 18.5541C76.9242 18.7101 77.228 18.9523 77.4743 19.2807C77.7288 19.6009 77.8561 20.032 77.8561 20.5738C77.8561 21.009 77.737 21.4195 77.4989 21.8054C77.269 22.1913 76.9283 22.5033 76.4767 22.7414C76.0334 22.9713 75.5079 23.0862 74.9003 23.0862Z" fill="#737373"/>
<path d="M339.5 18.5L327.833 6.83337V30.1667L351.167 6.83337V30.1667L345.333 24.3334" stroke="#575757" stroke-width="2" stroke-linecap="round" stroke-linejoin="round"/>
<path d="M351.167 18.5L339.5 30.1667L333.667 24.3333" stroke="#575757" stroke-width="2" stroke-linecap="round" stroke-linejoin="round"/>
<path d="M370.963 14.4376V15.5834H367.328V18.109H370.162V19.2547H367.328V23H365.924V14.4376H370.963ZM373.669 17.1973C373.874 16.8523 374.145 16.5854 374.482 16.3965C374.827 16.1994 375.234 16.1008 375.702 16.1008V17.5546H375.344C374.794 17.5546 374.375 17.6942 374.088 17.9734C373.809 18.2527 373.669 18.7373 373.669 19.4272V23H372.264V16.2117H373.669V17.1973ZM376.525 19.575C376.525 18.8933 376.664 18.2897 376.943 17.764C377.231 17.2383 377.617 16.8318 378.102 16.5443C378.594 16.2486 379.136 16.1008 379.728 16.1008C380.262 16.1008 380.726 16.2076 381.12 16.4211C381.522 16.6265 381.843 16.8852 382.081 17.1973V16.2117H383.498V23H382.081V21.9898C381.843 22.3101 381.518 22.577 381.108 22.7906C380.697 23.0041 380.229 23.1109 379.703 23.1109C379.12 23.1109 378.586 22.963 378.102 22.6674C377.617 22.3635 377.231 21.9446 376.943 21.4107C376.664 20.8686 376.525 20.2567 376.525 19.575ZM382.081 19.5997C382.081 19.1315 381.982 18.725 381.785 18.38C381.596 18.035 381.346 17.7722 381.034 17.5915C380.722 17.4108 380.385 17.3205 380.023 17.3205C379.662 17.3205 379.325 17.4108 379.013 17.5915C378.701 17.764 378.447 18.0227 378.249 18.3677C378.06 18.7044 377.966 19.1069 377.966 19.575C377.966 20.0432 378.06 20.4539 378.249 20.807C378.447 21.1602 378.701 21.4313 379.013 21.6202C379.334 21.8009 379.67 21.8912 380.023 21.8912C380.385 21.8912 380.722 21.8009 381.034 21.6202C381.346 21.4395 381.596 21.1766 381.785 20.8317C381.982 20.4785 382.081 20.0678 382.081 19.5997ZM393.56 16.1008C394.094 16.1008 394.57 16.2117 394.989 16.4334C395.416 16.6552 395.749 16.9837 395.987 17.419C396.233 17.8543 396.357 18.38 396.357 18.996V23H394.964V19.2054C394.964 18.5977 394.812 18.1336 394.509 17.8133C394.205 17.4847 393.79 17.3205 393.264 17.3205C392.739 17.3205 392.32 17.4847 392.008 17.8133C391.704 18.1336 391.552 18.5977 391.552 19.2054V23H390.16V19.2054C390.16 18.5977 390.008 18.1336 389.704 17.8133C389.4 17.4847 388.985 17.3205 388.459 17.3205C387.934 17.3205 387.515 17.4847 387.203 17.8133C386.899 18.1336 386.747 18.5977 386.747 19.2054V23H385.342V16.2117H386.747V16.9878C386.977 16.7086 387.268 16.4909 387.622 16.3349C387.975 16.1788 388.353 16.1008 388.755 16.1008C389.297 16.1008 389.782 16.2158 390.209 16.4458C390.636 16.6757 390.964 17.0084 391.194 17.4437C391.4 17.033 391.72 16.7086 392.155 16.4704C392.591 16.224 393.059 16.1008 393.56 16.1008ZM404.365 19.4395C404.365 19.6941 404.349 19.9241 404.316 20.1294H399.129C399.17 20.6715 399.372 21.1068 399.733 21.4354C400.094 21.7639 400.538 21.9282 401.064 21.9282C401.819 21.9282 402.353 21.6119 402.665 20.9795H404.18C403.975 21.6037 403.601 22.1171 403.059 22.5195C402.526 22.9138 401.86 23.1109 401.064 23.1109C400.415 23.1109 399.832 22.9671 399.314 22.6797C398.805 22.384 398.402 21.9733 398.107 21.4477C397.819 20.9138 397.676 20.2978 397.676 19.5997C397.676 18.9015 397.815 18.2897 398.094 17.764C398.382 17.2301 398.78 16.8195 399.289 16.532C399.807 16.2445 400.398 16.1008 401.064 16.1008C401.704 16.1008 402.275 16.2404 402.776 16.5197C403.277 16.7989 403.667 17.1932 403.946 17.7024C404.226 18.2034 404.365 18.7825 404.365 19.4395ZM402.899 18.996C402.891 18.4786 402.706 18.0638 402.345 17.7517C401.983 17.4396 401.536 17.2835 401.002 17.2835C400.517 17.2835 400.103 17.4396 399.758 17.7517C399.413 18.0556 399.207 18.4703 399.142 18.996H402.899ZM407.152 17.1973C407.357 16.8523 407.628 16.5854 407.965 16.3965C408.31 16.1994 408.717 16.1008 409.185 16.1008V17.5546H408.827C408.277 17.5546 407.858 17.6942 407.571 17.9734C407.292 18.2527 407.152 18.7373 407.152 19.4272V23H405.747V16.2117H407.152V17.1973ZM422.694 14.4376V23H421.29V17.1357L418.678 23H417.705L415.081 17.1357V23H413.676V14.4376H415.191L418.197 21.152L421.191 14.4376H422.694ZM427.485 23.1109C426.844 23.1109 426.265 22.9671 425.748 22.6797C425.23 22.384 424.824 21.9733 424.528 21.4477C424.232 20.9138 424.084 20.2978 424.084 19.5997C424.084 18.9098 424.236 18.2979 424.54 17.764C424.844 17.2301 425.259 16.8195 425.785 16.532C426.31 16.2445 426.897 16.1008 427.546 16.1008C428.195 16.1008 428.782 16.2445 429.308 16.532C429.834 16.8195 430.249 17.2301 430.552 17.764C430.856 18.2979 431.008 18.9098 431.008 19.5997C431.008 20.2896 430.852 20.9015 430.54 21.4354C430.228 21.9692 429.801 22.384 429.259 22.6797C428.725 22.9671 428.134 23.1109 427.485 23.1109ZM427.485 21.8912C427.846 21.8912 428.183 21.805 428.495 21.6325C428.815 21.46 429.074 21.2013 429.271 20.8563C429.468 20.5114 429.567 20.0925 429.567 19.5997C429.567 19.1069 429.472 18.6921 429.283 18.3554C429.095 18.0104 428.844 17.7517 428.532 17.5792C428.22 17.4067 427.883 17.3205 427.522 17.3205C427.16 17.3205 426.824 17.4067 426.511 17.5792C426.208 17.7517 425.965 18.0104 425.785 18.3554C425.604 18.6921 425.514 19.1069 425.514 19.5997C425.514 20.3307 425.698 20.8974 426.068 21.2998C426.446 21.6941 426.918 21.8912 427.485 21.8912ZM434.035 17.3574V21.115C434.035 21.3697 434.093 21.5545 434.208 21.6694C434.331 21.7762 434.536 21.8296 434.824 21.8296H435.686V23H434.577C433.945 23 433.46 22.8522 433.124 22.5565C432.787 22.2608 432.618 21.7803 432.618 21.115V17.3574H431.818V16.2117H432.618V14.5238H434.035V16.2117H435.686V17.3574H434.035ZM437.695 15.3123C437.441 15.3123 437.227 15.2261 437.054 15.0536C436.882 14.8811 436.796 14.6676 436.796 14.413C436.796 14.1583 436.882 13.9448 437.054 13.7723C437.227 13.5998 437.441 13.5136 437.695 13.5136C437.942 13.5136 438.151 13.5998 438.323 13.7723C438.496 13.9448 438.582 14.1583 438.582 14.413C438.582 14.6676 438.496 14.8811 438.323 15.0536C438.151 15.2261 437.942 15.3123 437.695 15.3123ZM438.385 16.2117V23H436.981V16.2117H438.385ZM443.173 23.1109C442.533 23.1109 441.954 22.9671 441.436 22.6797C440.919 22.384 440.512 21.9733 440.217 21.4477C439.921 20.9138 439.773 20.2978 439.773 19.5997C439.773 18.9098 439.925 18.2979 440.229 17.764C440.533 17.2301 440.948 16.8195 441.473 16.532C441.999 16.2445 442.586 16.1008 443.235 16.1008C443.884 16.1008 444.471 16.2445 444.997 16.532C445.522 16.8195 445.937 17.2301 446.241 17.764C446.545 18.2979 446.697 18.9098 446.697 19.5997C446.697 20.2896 446.541 20.9015 446.229 21.4354C445.917 21.9692 445.49 22.384 444.948 22.6797C444.414 22.9671 443.822 23.1109 443.173 23.1109ZM443.173 21.8912C443.535 21.8912 443.872 21.805 444.184 21.6325C444.504 21.46 444.763 21.2013 444.96 20.8563C445.157 20.5114 445.256 20.0925 445.256 19.5997C445.256 19.1069 445.161 18.6921 444.972 18.3554C444.783 18.0104 444.533 17.7517 444.221 17.5792C443.909 17.4067 443.572 17.3205 443.21 17.3205C442.849 17.3205 442.512 17.4067 442.2 17.5792C441.896 17.7517 441.654 18.0104 441.473 18.3554C441.293 18.6921 441.202 19.1069 441.202 19.5997C441.202 20.3307 441.387 20.8974 441.757 21.2998C442.134 21.6941 442.607 21.8912 443.173 21.8912ZM451.51 16.1008C452.044 16.1008 452.521 16.2117 452.939 16.4334C453.367 16.6552 453.699 16.9837 453.937 17.419C454.176 17.8543 454.295 18.38 454.295 18.996V23H452.903V19.2054C452.903 18.5977 452.751 18.1336 452.447 17.8133C452.143 17.4847 451.728 17.3205 451.202 17.3205C450.677 17.3205 450.258 17.4847 449.946 17.8133C449.642 18.1336 449.49 18.5977 449.49 19.2054V23H448.085V16.2117H449.49V16.9878C449.72 16.7086 450.011 16.4909 450.365 16.3349C450.726 16.1788 451.108 16.1008 451.51 16.1008Z" fill="#737373"/>
<defs>
<clipPath id="clip0_40_81">
<rect width="27" height="27" fill="white" transform="translate(0 5)"/>
</clipPath>
</defs>
</svg>
