<svg width="240" height="110" viewBox="0 0 240 110" fill="none" xmlns="http://www.w3.org/2000/svg">
<g clip-path="url(#clip0_66_502)">
<g filter="url(#filter0_d_66_502)">
<path d="M62.465 31.4967C62.465 26.5748 58.4633 22.5731 53.5414 22.5731H8.92357C4.00166 22.5731 0 26.5748 0 31.4967V76.1145C0 81.0364 4.00166 85.0381 8.92357 85.0381H53.5414C58.4633 85.0381 62.465 81.0364 62.465 76.1145V31.4967ZM25.223 80.1441C20.5242 80.1441 17.8053 77.718 16.411 74.776L21.1935 71.8898C22.1137 73.5211 22.9503 74.9015 24.972 74.9015C26.8962 74.9015 28.1232 74.1486 28.1232 71.2066V51.254H33.9932V71.2902C33.9932 77.3694 30.4238 80.1441 25.223 80.1441ZM37.1862 74.1486L41.9687 71.3878C43.2235 73.4375 44.8688 74.9573 47.755 74.9573C50.1811 74.9573 51.7428 73.7442 51.7428 72.0571C51.7428 70.0493 50.1532 69.3382 47.4622 68.153L45.9982 67.5256C41.7595 65.7269 38.957 63.4542 38.957 58.6717C38.957 54.2657 42.3172 50.9194 47.5459 50.9194C51.2826 50.9194 53.9597 52.2161 55.8838 55.6182L51.3105 58.5463C50.3066 56.7476 49.2191 56.0365 47.5319 56.0365C45.8169 56.0365 44.7294 57.1241 44.7294 58.5463C44.7294 60.3031 45.8169 61.0142 48.3406 62.1157L49.8047 62.7431C54.7963 64.8764 57.5988 67.0655 57.5988 71.9734C57.5988 77.2439 53.4438 80.1441 47.8805 80.1441C42.4288 80.1441 38.9012 77.5507 37.1862 74.1486Z" fill="white"/>
</g>
</g>
<g filter="url(#filter1_d_66_502)">
<rect x="62.0476" y="12.4327" width="60.8425" height="60.8425" rx="8.11233" transform="rotate(7.2659 62.0476 12.4327)" fill="white"/>
</g>
<path d="M71.1209 47.6413L71.701 43.0913L93.1381 45.8245L92.558 50.3745L84.5669 49.3557L81.819 70.9075L76.3642 70.212L79.112 48.6602L71.1209 47.6413ZM107.573 55.2939C107.603 54.2528 107.267 53.3983 106.566 52.7304C105.866 52.0626 104.853 51.6441 103.527 51.4751C102.626 51.3603 101.85 51.3908 101.197 51.5666C100.545 51.734 100.026 52.0174 99.6379 52.417C99.2587 52.8176 99.0334 53.2984 98.9619 53.8591C98.8853 54.3243 98.931 54.7446 99.099 55.12C99.2755 55.4966 99.5387 55.8367 99.8885 56.1403C100.239 56.4355 100.654 56.7085 101.131 56.9593C101.61 57.2016 102.125 57.4228 102.679 57.6229L104.952 58.4826C106.058 58.8827 107.06 59.3558 107.957 59.902C108.855 60.4481 109.612 61.0758 110.23 61.7849C110.848 62.494 111.294 63.2935 111.569 64.1834C111.853 65.0744 111.929 66.0642 111.799 67.1529C111.587 68.7492 111.003 70.0821 110.046 71.1518C109.099 72.214 107.828 72.9715 106.233 73.4245C104.648 73.87 102.793 73.9573 100.669 73.6865C98.5621 73.4178 96.768 72.8609 95.2869 72.0159C93.8144 71.1719 92.7212 70.0611 92.0075 68.6835C91.3033 67.2985 91.0497 65.6644 91.2466 63.7812L96.5868 64.4621C96.5347 65.3448 96.6922 66.1075 97.0592 66.7501C97.4359 67.3853 97.9791 67.8992 98.6889 68.292C99.4083 68.6773 100.244 68.9306 101.195 69.0519C102.13 69.1711 102.959 69.1386 103.682 68.9544C104.413 68.7714 105.001 68.4621 105.445 68.0265C105.889 67.5909 106.151 67.0588 106.231 66.43C106.306 65.8437 106.195 65.3287 105.897 64.885C105.608 64.4423 105.15 64.0385 104.523 63.6736C103.905 63.3098 103.134 62.9525 102.212 62.6018L99.4609 61.5257C97.3285 60.7098 95.6977 59.6514 94.5683 58.3503C93.439 57.0493 93.0015 55.4349 93.2559 53.5073C93.4489 51.9258 94.0456 50.5987 95.0458 49.526C96.0546 48.4544 97.3489 47.6825 98.9288 47.2104C100.509 46.7384 102.25 46.6237 104.154 46.8663C106.091 47.1133 107.739 47.6603 109.099 48.5072C110.468 49.3552 111.48 50.4211 112.137 51.7051C112.793 52.989 113.035 54.4101 112.863 55.9682L107.573 55.2939Z" fill="black"/>
<g filter="url(#filter2_d_66_502)">
<rect x="109.549" y="31.3846" width="60.8425" height="60.8425" rx="8.69179" transform="rotate(-7.91031 109.549 31.3846)" fill="white"/>
</g>
<path d="M142.038 42.9C135.908 43.7517 132.522 47.3346 131.835 53.678C133.707 50.3056 136.233 48.7846 139.392 49.1179C141.197 49.3117 142.635 50.3989 144.207 51.6079C146.776 53.5911 149.691 55.8771 155.431 55.0797C161.56 54.228 164.947 50.6451 165.634 44.3017C163.762 47.6741 161.236 49.1951 158.077 48.8618C156.272 48.668 154.856 47.5776 153.261 46.3718C150.693 44.3886 147.778 42.1026 142.038 42.9ZM132.473 58.2695C126.344 59.1212 122.957 62.704 122.27 69.0474C124.142 65.6751 126.668 64.154 129.827 64.4874C131.632 64.6811 133.048 65.7715 134.643 66.9774C137.211 68.9605 140.127 71.2466 145.866 70.4491C151.996 69.5974 155.382 66.0145 156.069 59.6712C154.197 63.0435 151.671 64.5646 148.512 64.2312C146.707 64.0375 145.292 62.9471 143.697 61.7412C141.128 59.7581 138.213 57.472 132.473 58.2695Z" fill="black"/>
<g filter="url(#filter3_d_66_502)">
<rect x="171.278" y="15.6776" width="60.8425" height="60.8425" rx="8.69179" transform="rotate(2.39411 171.278 15.6776)" fill="white"/>
<g clip-path="url(#clip1_66_502)">
<path d="M200.631 45.1041C202.547 45.1842 204.044 46.8118 203.962 48.7646C203.885 50.6244 202.256 52.14 200.341 52.0599C198.425 51.9798 196.929 50.3336 197.007 48.4738C197.088 46.5209 198.716 45.024 200.631 45.1041ZM191.251 63.1379C192.394 63.8936 195.005 62.9222 198.079 60.2561C197.158 59.1183 196.259 57.8884 195.418 56.605C193.926 56.3978 192.445 56.1121 190.983 55.7488C189.868 59.6892 190.107 62.438 191.251 63.1379ZM193.018 52.5176L192.518 51.5465C192.291 52.0773 192.064 52.6081 191.912 53.1234C192.41 53.256 192.964 53.3724 193.536 53.4895L193.018 52.5176ZM205.241 51.6127L206.864 48.8859L205.474 46.0332C204.957 45.0241 204.399 44.1251 203.896 43.2284C202.894 43.1306 201.834 43.0863 200.718 43.0397C199.602 42.993 198.542 42.9487 197.535 42.9625C196.959 43.8141 196.328 44.6633 195.728 45.6257L194.105 48.3525L195.495 51.2052C196.012 52.2143 196.57 53.1133 197.073 54.0099C198.075 54.1077 199.135 54.152 200.251 54.1987C201.367 54.2454 202.427 54.2897 203.434 54.2759C204.01 53.4243 204.641 52.5751 205.241 51.6127ZM200.89 38.9108C200.52 39.3052 200.13 39.7174 199.737 40.204L201.932 40.2958C201.581 39.7781 201.227 39.3348 200.89 38.9108ZM200.079 58.3275C200.449 57.9332 200.839 57.5209 201.232 57.0343L199.037 56.9426C199.388 57.4603 199.742 57.9036 200.079 58.3275ZM209.699 34.0997C208.575 33.3448 205.964 34.3162 202.89 36.9823C203.811 38.12 204.71 39.35 205.551 40.6334C207.069 40.8459 208.567 41.1321 209.986 41.4896C211.101 37.5492 210.862 34.8004 209.699 34.0997ZM207.951 44.7208L208.45 45.6918C208.678 45.161 208.905 44.6302 209.057 44.1149C208.559 43.9823 208.005 43.866 207.433 43.7489L207.951 44.7208ZM211.196 31.7216C213.864 33.3982 213.99 37.5209 212.636 42.2711C217.302 43.8635 220.609 46.312 220.478 49.4551C220.346 52.5982 216.846 54.7621 212.064 55.9595C213.017 60.8061 212.547 64.9039 209.748 66.3519C206.967 67.8006 203.341 65.8604 199.912 62.3076C196.199 65.5618 192.423 67.1925 189.755 65.516C187.105 63.8402 186.979 59.7175 188.333 54.9673C183.667 53.3749 180.36 50.9264 180.491 47.7833C180.623 44.6401 184.123 42.4762 188.905 41.2789C187.952 36.4323 188.422 32.3345 191.202 30.8857C194.002 29.4378 197.628 31.378 201.057 34.9308C204.77 31.6765 208.546 30.0458 211.196 31.7216ZM209.932 49.0142C210.507 50.4355 211.006 51.8537 211.412 53.2866C215.367 52.2782 217.631 50.6961 217.688 49.3385C217.745 47.9808 215.62 46.2152 211.763 44.8802C211.239 46.2742 210.623 47.6458 209.932 49.0142ZM191.037 48.2242C190.462 46.8028 189.963 45.3846 189.557 43.9517C185.602 44.9601 183.338 46.5422 183.281 47.8999C183.224 49.2576 185.349 51.0232 189.206 52.3582C189.73 50.9642 190.346 49.5926 191.037 48.2242ZM207.599 53.1272L207.002 54.0524C207.582 53.9835 208.144 53.9139 208.651 53.8233C208.542 53.2971 208.36 52.7492 208.178 52.2013L207.599 53.1272ZM201.91 60.4163C204.751 63.3297 207.272 64.5157 208.455 63.8572C209.672 63.256 210.14 60.5368 209.358 56.5171C207.913 56.7548 206.398 56.915 204.866 57C203.922 58.2088 202.923 59.3594 201.91 60.4163ZM193.37 44.1111L193.967 43.1859C193.387 43.2548 192.825 43.3245 192.318 43.4151C192.427 43.9413 192.609 44.4892 192.791 45.0371L193.37 44.1111ZM199.059 36.8221C196.218 33.9087 193.697 32.7227 192.496 33.3804C191.297 33.9824 190.829 36.7016 191.611 40.7213C193.099 40.4814 194.598 40.3202 196.103 40.2384C197.047 39.0296 198.046 37.879 199.059 36.8221Z" fill="black"/>
</g>
</g>
<defs>
<filter id="filter0_d_66_502" x="-24.337" y="9.59339" width="94.9144" height="94.9143" filterUnits="userSpaceOnUse" color-interpolation-filters="sRGB">
<feFlood flood-opacity="0" result="BackgroundImageFix"/>
<feColorMatrix in="SourceAlpha" type="matrix" values="0 0 0 0 0 0 0 0 0 0 0 0 0 0 0 0 0 0 127 0" result="hardAlpha"/>
<feOffset dx="-8.11233" dy="3.24493"/>
<feGaussianBlur stdDeviation="8.11233"/>
<feComposite in2="hardAlpha" operator="out"/>
<feColorMatrix type="matrix" values="0 0 0 0 0 0 0 0 0 0 0 0 0 0 0 0 0 0 0.25 0"/>
<feBlend mode="normal" in2="BackgroundImageFix" result="effect1_dropShadow_66_502"/>
<feBlend mode="normal" in="SourceGraphic" in2="effect1_dropShadow_66_502" result="shape"/>
</filter>
<filter id="filter1_d_66_502" x="30.9755" y="0.412965" width="98.5785" height="98.5783" filterUnits="userSpaceOnUse" color-interpolation-filters="sRGB">
<feFlood flood-opacity="0" result="BackgroundImageFix"/>
<feColorMatrix in="SourceAlpha" type="matrix" values="0 0 0 0 0 0 0 0 0 0 0 0 0 0 0 0 0 0 127 0" result="hardAlpha"/>
<feOffset dx="-8.11233" dy="3.24493"/>
<feGaussianBlur stdDeviation="8.11233"/>
<feComposite in2="hardAlpha" operator="out"/>
<feColorMatrix type="matrix" values="0 0 0 0 0 0 0 0 0 0 0 0 0 0 0 0 0 0 0.25 0"/>
<feBlend mode="normal" in2="BackgroundImageFix" result="effect1_dropShadow_66_502"/>
<feBlend mode="normal" in="SourceGraphic" in2="effect1_dropShadow_66_502" result="shape"/>
</filter>
<filter id="filter2_d_66_502" x="86.3244" y="11.144" width="98.8614" height="98.8614" filterUnits="userSpaceOnUse" color-interpolation-filters="sRGB">
<feFlood flood-opacity="0" result="BackgroundImageFix"/>
<feColorMatrix in="SourceAlpha" type="matrix" values="0 0 0 0 0 0 0 0 0 0 0 0 0 0 0 0 0 0 127 0" result="hardAlpha"/>
<feOffset dx="-8.11233" dy="3.24493"/>
<feGaussianBlur stdDeviation="8.11233"/>
<feComposite in2="hardAlpha" operator="out"/>
<feColorMatrix type="matrix" values="0 0 0 0 0 0 0 0 0 0 0 0 0 0 0 0 0 0 0.25 0"/>
<feBlend mode="normal" in2="BackgroundImageFix" result="effect1_dropShadow_66_502"/>
<feBlend mode="normal" in="SourceGraphic" in2="effect1_dropShadow_66_502" result="shape"/>
</filter>
<filter id="filter3_d_66_502" x="144.755" y="3.05325" width="95.0697" height="95.0696" filterUnits="userSpaceOnUse" color-interpolation-filters="sRGB">
<feFlood flood-opacity="0" result="BackgroundImageFix"/>
<feColorMatrix in="SourceAlpha" type="matrix" values="0 0 0 0 0 0 0 0 0 0 0 0 0 0 0 0 0 0 127 0" result="hardAlpha"/>
<feOffset dx="-8.11233" dy="3.24493"/>
<feGaussianBlur stdDeviation="8.11233"/>
<feComposite in2="hardAlpha" operator="out"/>
<feColorMatrix type="matrix" values="0 0 0 0 0 0 0 0 0 0 0 0 0 0 0 0 0 0 0.25 0"/>
<feBlend mode="normal" in2="BackgroundImageFix" result="effect1_dropShadow_66_502"/>
<feBlend mode="normal" in="SourceGraphic" in2="effect1_dropShadow_66_502" result="shape"/>
</filter>
<clipPath id="clip0_66_502">
<rect width="62.465" height="71.3885" fill="white" transform="translate(0 18.1114)"/>
</clipPath>
<clipPath id="clip1_66_502">
<rect width="39.7504" height="39.7504" fill="white" transform="translate(181.375 26.655) rotate(2.39411)"/>
</clipPath>
</defs>
</svg>
